<svg width="26" height="26" viewBox="0 0 26 26" fill="none" xmlns="http://www.w3.org/2000/svg">
<path fill-rule="evenodd" clip-rule="evenodd" d="M15.8451 2.84822C14.9722 2.46292 14.0088 2.25 13.0001 2.25C9.40681 2.25 6.38817 4.95182 5.99136 8.52311L5.71857 10.9782C5.69865 11.1575 5.69025 11.2326 5.6805 11.3057C5.56113 12.2017 5.26938 13.066 4.82136 13.851C4.78477 13.9151 4.74594 13.9799 4.65313 14.1346L4.02692 15.1783L3.99746 15.2274C3.70403 15.7163 3.43854 16.1587 3.27097 16.5335C3.09896 16.9182 2.92911 17.4423 3.1071 18.0126C3.1919 18.2842 3.3337 18.5347 3.52304 18.7472C3.92046 19.1932 4.45723 19.3172 4.87563 19.3676C5.28323 19.4168 5.79916 19.4167 6.3694 19.4167L6.42666 19.4167H19.5735L19.6308 19.4167C20.201 19.4167 20.7169 19.4168 21.1245 19.3676C21.5429 19.3172 22.0797 19.1932 22.4771 18.7472C22.6665 18.5347 22.8083 18.2842 22.8931 18.0126C23.071 17.4423 22.9012 16.9182 22.7292 16.5335C22.5616 16.1587 22.2961 15.7163 22.0027 15.2274L22.0027 15.2273L21.9732 15.1783L21.347 14.1346C21.2542 13.9799 21.2154 13.9151 21.1788 13.851C20.7791 13.1507 20.5038 12.3873 20.3643 11.5947C20.0833 11.642 19.7946 11.6667 19.5001 11.6667C19.0985 11.6667 18.7077 11.6209 18.3325 11.5342C18.334 11.5462 18.3356 11.558 18.3372 11.5699C18.4907 12.7218 18.8658 13.8331 19.4418 14.8423C19.4904 14.9275 19.5409 15.0117 19.6255 15.1526L19.6256 15.1529L19.632 15.1636L20.2582 16.2073C20.5907 16.7614 20.7912 17.0988 20.9034 17.3498L20.9158 17.3781L20.8851 17.382C20.6122 17.4149 20.2197 17.4167 19.5735 17.4167H6.42666C5.78045 17.4167 5.38797 17.4149 5.11502 17.382L5.0844 17.3781L5.09679 17.3498C5.209 17.0988 5.40944 16.7614 5.74191 16.2073L6.36811 15.1636L6.37436 15.1532L6.37439 15.1531C6.45913 15.0119 6.50969 14.9276 6.55837 14.8423C7.13439 13.8331 7.5095 12.7218 7.66298 11.5699C7.67595 11.4725 7.68681 11.3748 7.70499 11.2111L7.70634 11.199L7.97912 8.74397C8.26339 6.18555 10.4259 4.25 13.0001 4.25C13.6001 4.25 14.1778 4.35517 14.7145 4.54888C14.9763 3.90747 15.3633 3.33046 15.8451 2.84822ZM18.3256 4.67897C17.7286 5.06482 17.3334 5.73626 17.3334 6.5C17.3334 6.57514 17.3372 6.64939 17.3447 6.72256C17.5637 7.09094 17.7374 7.49034 17.858 7.91361C18.2554 8.37473 18.8436 8.66667 19.5001 8.66667C19.6785 8.66667 19.8519 8.64509 20.0178 8.60442L20.0088 8.52311C19.8453 7.0513 19.2364 5.72717 18.3256 4.67897Z" fill="#33363F"/>
<path d="M9.86074 19.1367C10.0459 20.1733 10.4539 21.0893 11.0215 21.7426C11.5891 22.3959 12.2846 22.75 13 22.75C13.7154 22.75 14.4109 22.3959 14.9785 21.7426C15.5461 21.0893 15.9541 20.1733 16.1393 19.1367" stroke="#33363F" stroke-width="2" stroke-linecap="round"/>
<circle cx="19.4999" cy="6.50001" r="2.66667" fill="#33363F" stroke="#33363F"/>
</svg>
